<svg width="308" height="308" viewBox="0 0 608 608" fill="none" xmlns="http://www.w3.org/2000/svg">
<path d="M537.107 127.121C522.997 108.406 505.357 92.6377 485.184 80.706C451.683 60.8001 413.878 48.8225 375.622 42.1953C254.57 21.2436 188.212 43.4113 138.162 79.4413C105.014 103.36 94.5926 154.213 84.8038 191.192C79.3074 211.949 74.407 232.925 67.573 253.293C56.9574 284.909 32.8441 310.445 24.8063 343.046C16.2943 377.446 16.9631 413.683 28.7462 447.269C52.0326 513.614 91.6012 552.064 182.4 564.832C231.04 571.69 270.134 551.59 310.493 527.404C335.373 512.495 361.164 499.059 389.716 492.979C419.873 486.57 450.893 485.683 481.135 479.724C548.781 466.409 570.486 402.387 579.278 341.745C589.918 268.323 583.254 188.079 537.107 127.121Z" fill="#FF6700"/>
<path opacity="0.7" d="M537.107 127.121C522.997 108.406 505.357 92.6377 485.184 80.706C451.683 60.8001 413.878 48.8225 375.622 42.1953C254.57 21.2436 188.212 43.4113 138.162 79.4413C105.014 103.36 94.5926 154.213 84.8038 191.192C79.3074 211.949 74.407 232.925 67.573 253.293C56.9574 284.909 32.8441 310.445 24.8063 343.046C16.2943 377.446 16.9631 413.683 28.7462 447.269C52.0326 513.614 91.6012 552.064 182.4 564.832C231.04 571.69 270.134 551.59 310.493 527.404C335.373 512.495 361.164 499.059 389.716 492.979C419.873 486.57 450.893 485.683 481.135 479.724C548.781 466.409 570.486 402.387 579.278 341.745C589.918 268.323 583.254 188.079 537.107 127.121Z" fill="white"/>
<g opacity="0.2">
<path d="M580.689 71.8779H348.724L340.492 91.6136H580.689V71.8779Z" stroke="black" stroke-linejoin="round"/>
<path d="M580.689 91.6135H348.724L340.492 111.361H580.689V91.6135Z" stroke="black" stroke-linejoin="round"/>
<path d="M580.689 111.361H348.724L340.492 131.097H580.689V111.361Z" stroke="black" stroke-linejoin="round"/>
<path d="M580.689 131.097H348.724L340.492 150.845H580.689V131.097Z" stroke="black" stroke-linejoin="round"/>
<path d="M580.689 150.845H348.724L340.492 170.581H580.689V150.845Z" stroke="black" stroke-linejoin="round"/>
<path d="M580.689 170.581H348.724L340.492 190.328H580.689V170.581Z" stroke="black" stroke-linejoin="round"/>
<path d="M580.689 190.328H348.724L340.492 210.064H580.689V190.328Z" stroke="black" stroke-linejoin="round"/>
<path d="M580.689 210.064H348.724L340.492 229.812H580.689V210.064Z" stroke="black" stroke-linejoin="round"/>
<path d="M580.689 229.812H348.724L340.492 249.548H580.689V229.812Z" stroke="black" stroke-linejoin="round"/>
<path d="M580.689 249.548H348.724L340.492 269.295H580.689V249.548Z" stroke="black" stroke-linejoin="round"/>
<path d="M580.689 269.295H348.724L340.492 289.031H580.689V269.295Z" stroke="black" stroke-linejoin="round"/>
<path d="M580.689 289.031H348.724L340.492 308.779H580.689V289.031Z" stroke="black" stroke-linejoin="round"/>
<path d="M580.689 308.779H348.724L340.492 328.515H580.689V308.779Z" stroke="black" stroke-linejoin="round"/>
<path d="M580.689 328.515H348.724L340.492 348.262H580.689V328.515Z" stroke="black" stroke-linejoin="round"/>
<path d="M580.689 348.262H348.724L340.492 367.998H580.689V348.262Z" stroke="black" stroke-linejoin="round"/>
<path d="M580.689 367.998H348.724L340.492 387.746H580.689V367.998Z" stroke="black" stroke-linejoin="round"/>
<path d="M585.613 65.2993H338.024V394.325H585.613V65.2993Z" stroke="black" stroke-linejoin="round"/>
</g>
<g opacity="0.2">
<path d="M128.543 512.994H45.3445V556.904H128.543V512.994Z" stroke="black" stroke-linejoin="round"/>
<path d="M93.6929 529.811H80.1831V536.353H93.6929V529.811Z" stroke="black" stroke-linejoin="round"/>
<path d="M132.799 455.927H41.0764V568.273H132.799V455.927Z" stroke="black" stroke-linejoin="round"/>
<path d="M128.543 461.618H45.3445V505.528H128.543V461.618Z" stroke="black" stroke-linejoin="round"/>
<path d="M93.6929 478.435H80.1831V484.977H93.6929V478.435Z" stroke="black" stroke-linejoin="round"/>
<path d="M96.0639 448.813H63.3535V455.927H96.0639V448.813Z" stroke="black" stroke-linejoin="round"/>
<path d="M81.1316 426.78H75.4407V448.826H81.1316V426.78Z" stroke="black" stroke-linejoin="round"/>
<path d="M108.151 375.574H46.9983V426.767H108.151V375.574Z" stroke="black" stroke-linejoin="round"/>
</g>
<g opacity="0.2">
<path d="M472.902 515.085V421.21C472.904 419.437 472.556 417.681 471.878 416.043C471.2 414.405 470.206 412.916 468.953 411.662C467.699 410.409 466.21 409.415 464.572 408.737C462.934 408.059 461.178 407.711 459.405 407.713H336.078V516.022" stroke="black" stroke-linejoin="round"/>
<path d="M337.112 407.713H211.487C209.715 407.713 207.96 408.062 206.323 408.74C204.686 409.419 203.199 410.413 201.947 411.667C200.694 412.92 199.701 414.408 199.024 416.046C198.347 417.683 198 419.438 198.001 421.21V515.085" stroke="black" stroke-linejoin="round"/>
<path d="M485.087 524.096V555.712H336.139V515.085H476.113C477.295 515.084 478.465 515.316 479.557 515.769C480.649 516.221 481.641 516.886 482.475 517.723C483.309 518.561 483.969 519.555 484.417 520.649C484.866 521.742 485.093 522.914 485.087 524.096Z" stroke="black" stroke-linejoin="round"/>
<path d="M337.27 515.085H194.779C193.601 515.085 192.435 515.318 191.347 515.769C190.258 516.22 189.27 516.881 188.438 517.715C187.605 518.548 186.945 519.537 186.496 520.626C186.046 521.715 185.815 522.882 185.817 524.06V555.676H337.27" stroke="black" stroke-linejoin="round"/>
<path d="M185.817 568.894V555.627H485.342V568.894" stroke="black" stroke-linejoin="round"/>
<path d="M198.001 461.217C197.156 460.337 196.143 459.636 195.02 459.158C193.898 458.679 192.691 458.433 191.471 458.432H164.342C163.155 458.43 161.979 458.663 160.881 459.116C159.784 459.569 158.786 460.235 157.946 461.074C157.106 461.913 156.439 462.91 155.984 464.006C155.53 465.103 155.295 466.279 155.295 467.467V568.249" stroke="black" stroke-linejoin="round"/>
<path d="M512.459 567.592V467.467C512.459 465.071 511.507 462.773 509.813 461.078C508.118 459.384 505.82 458.432 503.424 458.432H476.295C475.131 458.427 473.978 458.654 472.902 459.101" stroke="black" stroke-linejoin="round"/>
</g>
<path d="M533.167 63.305V356.361C533.167 359.909 531.758 363.311 529.25 365.819C526.741 368.328 523.339 369.737 519.791 369.737H96.6233C93.0758 369.737 89.6735 368.328 87.1651 365.819C84.6566 363.311 83.2473 359.909 83.2473 356.361V63.305C83.2473 60.08 84.5285 56.987 86.8089 54.7066C89.0893 52.4262 92.1823 51.145 95.4073 51.145H521.007C524.232 51.145 527.325 52.4262 529.606 54.7066C531.886 56.987 533.167 60.08 533.167 63.305Z" fill="#FF6700" stroke="#263238" stroke-miterlimit="10"/>
<path d="M533.167 63.305V88.5978H83.2473V63.305C83.2473 60.08 84.5285 56.987 86.8089 54.7066C89.0893 52.4262 92.1823 51.145 95.4073 51.145H521.007C524.232 51.145 527.325 52.4262 529.606 54.7066C531.886 56.987 533.167 60.08 533.167 63.305Z" fill="#C9C9C9" stroke="#263238" stroke-miterlimit="10"/>
<path d="M373.215 83.6974H133.201C132.119 83.6942 131.083 83.2623 130.319 82.4964C129.556 81.7305 129.127 80.6931 129.127 79.6116C129.127 78.5301 129.556 77.4927 130.319 76.7269C131.083 75.961 132.119 75.5291 133.201 75.5259H373.215C374.298 75.5259 375.337 75.9563 376.104 76.7226C376.87 77.4888 377.3 78.528 377.3 79.6116C377.3 80.6953 376.87 81.7345 376.104 82.5007C375.337 83.2669 374.298 83.6974 373.215 83.6974Z" fill="white" stroke="#263238" stroke-miterlimit="10"/>
<path d="M510.367 76.3406H525.883" stroke="#263238" stroke-miterlimit="10"/>
<path d="M510.367 79.6116H525.883" stroke="#263238" stroke-miterlimit="10"/>
<path d="M510.367 82.8826H525.883" stroke="#263238" stroke-miterlimit="10"/>
<path d="M533.167 63.305V70.601H83.2473V63.305C83.2473 60.08 84.5285 56.987 86.8089 54.7066C89.0893 52.4262 92.1823 51.145 95.4073 51.145H521.007C524.232 51.145 527.325 52.4262 529.606 54.7066C531.886 56.987 533.167 60.08 533.167 63.305Z" fill="#263238" stroke="#263238" stroke-miterlimit="10"/>
<path d="M488.346 61.2744C488.36 60.535 488.154 59.8081 487.753 59.1864C487.353 58.5646 486.776 58.0764 486.097 57.7839C485.418 57.4914 484.667 57.4079 483.94 57.5441C483.213 57.6804 482.543 58.0301 482.016 58.5487C481.489 59.0673 481.128 59.7312 480.98 60.4557C480.832 61.1802 480.903 61.9325 481.184 62.6165C481.465 63.3004 481.944 63.8851 482.559 64.2958C483.174 64.7065 483.897 64.9246 484.637 64.9224C485.121 64.9304 485.602 64.842 486.051 64.6623C486.501 64.4826 486.91 64.2152 487.256 63.8756C487.601 63.5361 487.875 63.1312 488.062 62.6846C488.249 62.238 488.346 61.7586 488.346 61.2744Z" fill="white" stroke="#263238" stroke-miterlimit="10"/>
<path d="M503.716 61.2742C503.728 60.5382 503.521 59.8153 503.121 59.1974C502.72 58.5796 502.145 58.0948 501.469 57.8047C500.792 57.5147 500.045 57.4325 499.321 57.5686C498.598 57.7048 497.932 58.0532 497.407 58.5693C496.882 59.0855 496.523 59.7462 496.375 60.4672C496.226 61.1883 496.296 61.9371 496.575 62.6183C496.854 63.2996 497.329 63.8824 497.94 64.2927C498.551 64.703 499.271 64.9221 500.007 64.9222C500.491 64.9303 500.972 64.8419 501.422 64.6622C501.871 64.4825 502.281 64.2151 502.626 63.8755C502.971 63.5359 503.245 63.1311 503.432 62.6845C503.62 62.2379 503.716 61.7585 503.716 61.2742Z" fill="white" stroke="#263238" stroke-miterlimit="10"/>
<path d="M519.086 61.2742C519.098 60.5382 518.891 59.8153 518.491 59.1974C518.091 58.5796 517.516 58.0948 516.839 57.8047C516.163 57.5147 515.415 57.4325 514.692 57.5686C513.968 57.7048 513.302 58.0532 512.777 58.5693C512.252 59.0855 511.893 59.7462 511.745 60.4672C511.597 61.1883 511.666 61.9371 511.945 62.6183C512.224 63.2996 512.699 63.8824 513.311 64.2927C513.922 64.703 514.641 64.9221 515.377 64.9222C515.861 64.9303 516.342 64.8419 516.792 64.6622C517.242 64.4825 517.651 64.2151 517.996 63.8755C518.341 63.5359 518.616 63.1311 518.803 62.6845C518.99 62.2379 519.086 61.7585 519.086 61.2742Z" fill="white" stroke="#263238" stroke-miterlimit="10"/>
<path d="M508.92 101.086H108.723V351.534H508.92V101.086Z" fill="white" stroke="#263238" stroke-miterlimit="10"/>
<path d="M498.706 111.459H118.925V341.137H498.706V111.459Z" stroke="#FF6700" stroke-width="5" stroke-miterlimit="10"/>
<path d="M489.002 122.95H128.628V329.67H489.002V122.95Z" stroke="#FF6700" stroke-miterlimit="10"/>
<path d="M248.55 147.136V149.264H246.045V147.002C246.045 144.874 245.206 143.597 243.285 143.597C241.364 143.597 240.525 144.813 240.525 147.002V159.478C240.525 161.594 241.4 162.883 243.285 162.883C245.17 162.883 246.045 161.594 246.045 159.478V156.402H248.55V159.296C248.55 162.871 246.86 165.23 243.212 165.23C239.564 165.23 237.922 162.871 237.922 159.296V147.136C237.922 143.561 239.613 141.202 243.212 141.202C246.811 141.202 248.55 143.549 248.55 147.136Z" fill="#263238"/>
<path d="M259.336 151.878V154.238H253.56V162.628H260.65V165.06H250.922V141.421H260.65V143.853H253.56V151.915L259.336 151.878Z" fill="#263238"/>
<path d="M268.335 141.421C272.043 141.421 273.588 143.318 273.588 146.82V148.741C273.588 151.343 272.676 152.961 270.657 153.605C272.81 154.25 273.624 156.037 273.624 158.53V162.178C273.547 163.147 273.71 164.12 274.098 165.011H271.435C271.062 164.108 270.912 163.128 270.998 162.154V158.445C270.998 155.77 269.782 154.931 267.556 154.931H265.696V165.011H263.069V141.421H268.335ZM267.654 152.547C269.745 152.547 270.998 151.878 270.998 149.313V147.051C270.998 144.935 270.219 143.816 268.262 143.816H265.696V152.547H267.654Z" fill="#263238"/>
<path d="M279.789 165.023V143.816H275.448V141.384H286.769V143.816H282.428V165.023H279.789Z" fill="#263238"/>
<path d="M291.22 141.421V165.023H288.593V141.421H291.22Z" fill="#263238"/>
<path d="M301.981 152.414V154.846H296.546V165.06H293.919V141.421H303.295V143.853H296.546V152.45L301.981 152.414Z" fill="#263238"/>
<path d="M308.013 141.421V165.023H305.374V141.421H308.013Z" fill="#263238"/>
<path d="M321.121 147.136V149.264H318.592V147.002C318.592 144.874 317.753 143.597 315.832 143.597C313.91 143.597 313.059 144.813 313.059 147.002V159.478C313.059 161.594 313.935 162.883 315.832 162.883C317.729 162.883 318.592 161.594 318.592 159.478V156.402H321.085V159.296C321.085 162.871 319.407 165.23 315.759 165.23C312.111 165.23 310.469 162.871 310.469 159.296V147.136C310.469 143.561 312.147 141.202 315.759 141.202C319.37 141.202 321.121 143.549 321.121 147.136Z" fill="#263238"/>
<path d="M326.18 160.269L325.268 165.023H322.836L327.347 141.421H331.153L335.677 165.023H333.062L332.15 160.269H326.18ZM326.52 158.007H331.773L329.11 144.388L326.52 158.007Z" fill="#263238"/>
<path d="M341.185 165.023V143.816H336.832V141.384H348.165V143.816H343.812V165.023H341.185Z" fill="#263238"/>
<path d="M352.64 141.421V165.023H350.013V141.421H352.64Z" fill="#263238"/>
<path d="M355.072 147.136C355.072 143.488 356.86 141.202 360.459 141.202C364.058 141.202 365.894 143.524 365.894 147.136V159.296C365.894 162.871 364.107 165.23 360.459 165.23C356.811 165.23 355.072 162.944 355.072 159.296V147.136ZM357.662 159.478C357.662 161.631 358.574 162.883 360.459 162.883C362.344 162.883 363.256 161.667 363.256 159.478V146.99C363.256 144.862 362.38 143.585 360.459 143.585C358.538 143.585 357.662 144.801 357.662 146.99V159.478Z" fill="#263238"/>
<path d="M370.746 165.023H368.448V141.421H371.78L377.24 158.445V141.421H379.574V165.023H376.838L370.758 145.944L370.746 165.023Z" fill="#263238"/>
<path d="M220.4 178.181H401.426" stroke="#263238" stroke-miterlimit="10"/>
<path d="M464.634 201.272H477.158" stroke="#263238" stroke-miterlimit="10"/>
<path d="M357.468 201.272H458.019" stroke="#263238" stroke-miterlimit="10"/>
<path d="M299.258 201.272H351.728" stroke="#263238" stroke-miterlimit="10"/>
<path d="M221.19 201.272H293.956" stroke="#263238" stroke-miterlimit="10"/>
<path d="M173.997 201.272H213.688" stroke="#263238" stroke-miterlimit="10"/>
<path d="M144.667 201.272H168.27" stroke="#263238" stroke-miterlimit="10"/>
<path d="M295.281 212.35H477.158" stroke="#263238" stroke-miterlimit="10"/>
<path d="M154.152 212.35H289.554" stroke="#263238" stroke-miterlimit="10"/>
<path d="M144.667 212.35H148.863" stroke="#263238" stroke-miterlimit="10"/>
<path d="M463.308 223.428H477.158" stroke="#263238" stroke-miterlimit="10"/>
<path d="M388.78 223.428H456.693" stroke="#263238" stroke-miterlimit="10"/>
<path d="M286.015 223.428H383.49" stroke="#263238" stroke-miterlimit="10"/>
<path d="M271.022 223.428H280.288" stroke="#263238" stroke-miterlimit="10"/>
<path d="M144.667 223.428H263.082" stroke="#263238" stroke-miterlimit="10"/>
<path d="M421.855 234.518H477.158" stroke="#263238" stroke-miterlimit="10"/>
<path d="M224.279 234.518H416.565" stroke="#263238" stroke-miterlimit="10"/>
<path d="M206.635 234.518H217.226" stroke="#263238" stroke-miterlimit="10"/>
<path d="M144.667 234.518H200.907" stroke="#263238" stroke-miterlimit="10"/>
<path d="M442.588 245.596H477.158" stroke="#263238" stroke-miterlimit="10"/>
<path d="M294.844 245.596H435.535" stroke="#263238" stroke-miterlimit="10"/>
<path d="M238.385 245.596H288.228" stroke="#263238" stroke-miterlimit="10"/>
<path d="M159.442 245.596H231.77" stroke="#263238" stroke-miterlimit="10"/>
<path d="M144.667 245.596H155.04" stroke="#263238" stroke-miterlimit="10"/>
<path d="M158.104 294.406L169.51 324.04L175.031 310.639L188.443 316.099L175.335 288.277L158.104 294.406Z" fill="#263238" stroke="#263238" stroke-linecap="round" stroke-linejoin="round"/>
<path d="M154.031 287.961L140.229 316.549L153.775 311.43L158.968 324.94L170.301 296.351L154.031 287.961Z" fill="#263238" stroke="#263238" stroke-linecap="round" stroke-linejoin="round"/>
<path d="M188.407 280.762C188.407 279.68 190.754 278.44 190.608 277.394C190.462 276.348 187.86 275.801 187.556 274.792C187.252 273.782 189.149 271.91 188.711 270.949C188.273 269.988 185.622 270.207 185.063 269.307C184.504 268.408 185.78 266.097 185.063 265.295C184.346 264.492 181.889 265.453 181.087 264.747C180.284 264.042 180.892 261.476 179.992 260.893C179.092 260.309 177.001 261.938 176.016 261.489C175.031 261.039 174.909 258.4 173.876 258.096C172.842 257.792 171.31 259.944 170.228 259.798C169.146 259.652 168.294 257.147 167.212 257.147C166.13 257.147 165.242 259.652 164.196 259.798C163.151 259.944 161.57 257.804 160.548 258.096C159.527 258.388 159.332 261.051 158.396 261.489C157.46 261.926 155.332 260.273 154.432 260.893C153.532 261.513 154.14 264.054 153.338 264.76C152.535 265.465 150.054 264.492 149.361 265.295C148.668 266.097 149.957 268.408 149.361 269.307C148.765 270.207 146.139 269.976 145.713 270.949C145.288 271.922 147.172 273.758 146.868 274.792C146.564 275.825 143.974 276.336 143.816 277.394C143.658 278.452 146.017 279.68 146.017 280.762C146.017 281.844 143.67 283.073 143.816 284.118C143.962 285.164 146.564 285.711 146.868 286.733C147.172 287.754 145.263 289.602 145.713 290.563C146.163 291.524 148.802 291.317 149.361 292.205C149.921 293.092 148.632 295.415 149.361 296.218C150.091 297.02 152.523 296.059 153.338 296.765C154.152 297.47 153.532 300.036 154.432 300.619C155.332 301.203 157.423 299.574 158.396 300.024C159.369 300.474 159.515 303.112 160.548 303.416C161.582 303.72 163.114 301.568 164.196 301.726C165.279 301.884 166.13 304.365 167.212 304.365C168.294 304.365 169.182 301.872 170.228 301.726C171.274 301.58 172.854 303.708 173.876 303.416C174.897 303.124 175.092 300.461 176.028 300.024C176.964 299.586 179.092 301.24 179.992 300.619C180.892 299.999 180.284 297.458 181.087 296.765C181.889 296.072 184.37 297.02 185.063 296.218C185.756 295.415 184.467 293.105 185.063 292.205C185.659 291.305 188.285 291.536 188.711 290.563C189.137 289.59 187.252 287.754 187.556 286.721C187.86 285.687 190.45 285.188 190.608 284.118C190.766 283.048 188.407 281.844 188.407 280.762Z" fill="#FF6700" stroke="#263238" stroke-miterlimit="10"/>
<path d="M167.236 295.427C175.336 295.427 181.901 288.862 181.901 280.762C181.901 272.663 175.336 266.097 167.236 266.097C159.137 266.097 152.572 272.663 152.572 280.762C152.572 288.862 159.137 295.427 167.236 295.427Z" fill="#263238" stroke="#263238" stroke-linecap="round" stroke-linejoin="round"/>
<path d="M167.236 270.682L169.498 277.649H176.818L170.897 281.942L173.158 288.909L167.236 284.605L161.314 288.909L163.576 281.942L157.654 277.649H164.975L167.236 270.682Z" fill="#FF6700"/>
<path d="M205.662 273.734H261.598" stroke="#263238" stroke-miterlimit="10"/>
<path d="M205.662 287.098H261.598" stroke="#263238" stroke-miterlimit="10"/>
<path d="M445.895 305.459C457.379 305.459 466.689 296.15 466.689 284.666C466.689 273.182 457.379 263.872 445.895 263.872C434.411 263.872 425.101 273.182 425.101 284.666C425.101 296.15 434.411 305.459 445.895 305.459Z" stroke="#FF6700" stroke-miterlimit="10"/>
<path d="M448.905 298.474C456.515 296.808 461.334 289.288 459.668 281.678C458.001 274.068 450.482 269.249 442.871 270.916C435.261 272.582 430.443 280.102 432.109 287.712C433.775 295.322 441.295 300.14 448.905 298.474Z" fill="#FF6700"/>
<path d="M514.368 518.624C514.368 518.624 510.112 511.328 507.984 507.376C506.499 504.515 505.179 501.572 504.032 498.56C504.032 498.56 509.2 501.6 510.72 502.816C512.24 504.032 518.624 511.632 518.624 511.632L520.448 509.504L518.32 502.512L525.312 510.416L528.656 496.128L533.824 509.808L543.552 497.648L544.16 509.808L556.016 500.384L551.76 515.28L547.2 521.664H514.672L514.368 518.624Z" fill="#FF6700" stroke="#263238" stroke-miterlimit="10"/>
<path d="M512.544 518.624C512.544 518.624 509.808 517.408 505.248 511.936C502.336 508.39 499.694 504.63 497.344 500.688C497.344 500.688 507.68 506.464 511.328 509.2C514.441 511.86 517.291 514.812 519.84 518.016C519.84 518.016 516.8 510.416 516.496 506.768C516.192 503.12 515.888 495.216 515.888 495.216C515.888 495.216 524.704 504.032 525.312 506.464C525.92 508.896 529.264 517.104 529.264 517.104C530.272 513.4 531.084 509.646 531.696 505.856C532.304 501.296 537.168 494 537.168 494C537.168 494 537.776 499.168 538.08 504.336C538.384 509.504 535.344 519.232 535.344 519.232C535.344 519.232 539.296 509.808 543.248 505.248C546.35 501.859 549.704 498.709 553.28 495.824C553.28 495.824 550.24 505.248 549.024 509.504C547.888 512.817 546.357 515.981 544.464 518.928C547.317 515.322 550.361 511.872 553.584 508.592C556.551 506.218 559.703 504.083 563.008 502.208C563.008 502.208 559.664 508.592 557.232 512.24C554.963 515.407 552.527 518.451 549.936 521.36H512.544V518.624Z" fill="#FF6700" stroke="#263238" stroke-miterlimit="10"/>
<path d="M555.347 518.016L553.244 536.56L549.632 568.273H511.535L507.923 536.56L505.82 518.016H555.347Z" fill="white" stroke="#263238" stroke-miterlimit="10"/>
<path d="M553.244 536.56L549.632 568.273H511.535L507.923 536.56H553.244Z" fill="#FF6700" stroke="#263238" stroke-miterlimit="10"/>
<path d="M514.976 545.376C515.983 545.376 516.8 544.559 516.8 543.552C516.8 542.545 515.983 541.728 514.976 541.728C513.969 541.728 513.152 542.545 513.152 543.552C513.152 544.559 513.969 545.376 514.976 545.376Z" fill="#263238"/>
<path d="M528.352 545.376C529.359 545.376 530.176 544.559 530.176 543.552C530.176 542.545 529.359 541.728 528.352 541.728C527.345 541.728 526.528 542.545 526.528 543.552C526.528 544.559 527.345 545.376 528.352 545.376Z" fill="#263238"/>
<path d="M520.144 554.8C521.151 554.8 521.968 553.983 521.968 552.976C521.968 551.969 521.151 551.152 520.144 551.152C519.137 551.152 518.32 551.969 518.32 552.976C518.32 553.983 519.137 554.8 520.144 554.8Z" fill="#263238"/>
<path d="M536.256 554.8C537.263 554.8 538.08 553.983 538.08 552.976C538.08 551.969 537.263 551.152 536.256 551.152C535.249 551.152 534.432 551.969 534.432 552.976C534.432 553.983 535.249 554.8 536.256 554.8Z" fill="#263238"/>
<path d="M546.896 554.8C547.903 554.8 548.72 553.983 548.72 552.976C548.72 551.969 547.903 551.152 546.896 551.152C545.889 551.152 545.072 551.969 545.072 552.976C545.072 553.983 545.889 554.8 546.896 554.8Z" fill="#263238"/>
<path d="M541.728 545.376C542.735 545.376 543.552 544.559 543.552 543.552C543.552 542.545 542.735 541.728 541.728 541.728C540.721 541.728 539.904 542.545 539.904 543.552C539.904 544.559 540.721 545.376 541.728 545.376Z" fill="#263238"/>
<path d="M514.976 562.4C515.983 562.4 516.8 561.583 516.8 560.576C516.8 559.569 515.983 558.752 514.976 558.752C513.969 558.752 513.152 559.569 513.152 560.576C513.152 561.583 513.969 562.4 514.976 562.4Z" fill="#263238"/>
<path d="M528.352 562.4C529.359 562.4 530.176 561.583 530.176 560.576C530.176 559.569 529.359 558.752 528.352 558.752C527.345 558.752 526.528 559.569 526.528 560.576C526.528 561.583 527.345 562.4 528.352 562.4Z" fill="#263238"/>
<path d="M541.728 562.4C542.735 562.4 543.552 561.583 543.552 560.576C543.552 559.569 542.735 558.752 541.728 558.752C540.721 558.752 539.904 559.569 539.904 560.576C539.904 561.583 540.721 562.4 541.728 562.4Z" fill="#263238"/>
<path d="M329.754 362.808C329.777 353.54 324.879 346.015 318.815 346C312.751 345.985 307.816 353.486 307.793 362.754C307.771 372.022 312.669 379.547 318.733 379.562C324.797 379.577 329.732 372.076 329.754 362.808Z" fill="white" stroke="#263238" stroke-linecap="round" stroke-linejoin="round"/>
<path d="M332.564 320.769C332.564 320.769 326.642 324.161 321 320.489C315.357 316.817 319.309 315.139 320.44 312.877C321.571 310.615 318.75 310.056 318.179 306.955C317.607 303.854 319.589 301.313 320.72 301.033C321.851 300.753 321.571 297.64 321.571 294.54C321.571 291.439 325.219 288.618 326.922 288.618C328.624 288.618 329.743 286.368 330.874 283.547C332.004 280.726 334.266 278.184 338.17 279.899C342.073 281.613 344.092 281.589 346.074 278.768C348.056 275.947 352.835 275.388 354.586 276.798C356.337 278.209 357.115 281.03 360.508 278.209C363.9 275.388 368.12 275.959 370.09 277.929C372.06 279.899 371.78 282.161 374.954 281.03C378.127 279.899 383.125 281.589 384.256 284.982C385.387 288.374 391.552 292.035 393.85 291.183C396.149 290.332 400.052 291.183 398.07 295.415C396.088 299.647 398.362 302.468 400.052 302.468C401.742 302.468 405.414 303.599 403.432 307.259C401.45 310.919 400.052 313.752 402.301 314.871C404.551 315.99 408.223 316.282 405.414 321.085C402.605 325.888 400.332 325.596 401.183 328.381C402.034 331.165 403.712 332.029 401.183 334.023C398.653 336.017 395.54 336.844 395.54 338.534C395.54 340.225 398.921 341.064 394.969 342.474C392.69 343.306 390.324 343.877 387.916 344.177C387.916 344.177 382.286 328.94 366.198 323.869C350.111 318.799 340.821 319.346 337.148 321.328C333.476 323.31 332.564 320.769 332.564 320.769Z" fill="#263238" stroke="#263238" stroke-linecap="round" stroke-linejoin="round"/>
<path d="M338.243 424.177L317.571 433.711C317.571 433.711 306.882 492.881 307.648 509.297C308.414 525.713 317.571 566.559 317.571 566.559H367.232C367.232 566.559 359.596 516.545 363.414 498.609C367.232 480.673 376.401 431.425 376.401 431.425C376.401 431.425 361.128 427.229 356.543 426.463C351.959 425.697 338.243 424.177 338.243 424.177Z" fill="white" stroke="#263238" stroke-miterlimit="10"/>
<path d="M314.531 451.817L371.683 456.754C371.22 459.186 370.758 461.618 370.284 464.05L313.375 459.186C313.728 456.608 314.154 454.139 314.531 451.817ZM363.438 498.56C363.876 496.493 364.387 494.012 364.946 491.264L309.423 486.473C309.107 489.026 308.828 491.495 308.572 493.842L363.438 498.596V498.56ZM368.302 473.972L311.77 469.108C311.405 471.54 311.041 473.972 310.7 476.477L366.867 481.341C367.39 478.982 367.864 476.526 368.351 474.021L368.302 473.972ZM307.684 504.664C307.612 506.415 307.599 507.96 307.684 509.249C307.684 510.136 307.794 511.097 307.879 512.106L362.368 515.584C362.368 512.982 362.368 510.477 362.368 508.142L307.684 504.664ZM317.923 433.504L317.583 433.662C317.583 433.662 317.096 436.386 316.367 440.824L373.713 445.786C374.224 443.025 374.698 440.545 375.087 438.49L317.923 433.504ZM364.131 542.239L312.512 541.691C312.998 544.269 313.497 546.762 313.971 549.133L365.043 549.717C364.8 547.382 364.484 544.877 364.216 542.336L364.131 542.239ZM310.299 529.981L363.28 533.094C363.069 530.606 362.887 528.113 362.733 525.616L309.095 522.466C309.533 524.935 309.946 527.464 310.384 530.03L310.299 529.981Z" fill="#263238"/>
<path d="M335.19 413.44C335.19 413.44 330.995 429.467 330.618 437.869C330.241 446.272 339.009 453.13 351.606 451.987C364.204 450.844 366.49 437.103 366.49 433.662C366.49 430.221 367.232 401.28 367.232 401.28C363.009 404.894 358.539 408.209 353.856 411.203C346.645 415.775 335.19 413.44 335.19 413.44Z" fill="#B5B5B5" stroke="#263238" stroke-miterlimit="10"/>
<path d="M346.645 427.229C358.574 421.514 364.52 410.291 367.208 403.165C367.208 401.949 367.208 401.268 367.208 401.268C362.984 404.881 358.515 408.197 353.832 411.19C346.536 415.775 335.13 413.489 335.13 413.489C335.13 413.489 332.515 423.508 331.226 431.85C336.587 431.177 341.798 429.615 346.645 427.229Z" fill="#263238" stroke="#263238" stroke-miterlimit="10"/>
<path d="M387.527 352.202C387.527 352.202 387.041 335.276 380.754 325.596C374.467 315.917 361.213 309.995 346.414 312.512C328.053 315.674 319.808 329.439 316.902 341.052C313.996 352.664 317.388 369.591 317.388 381.18C317.388 392.768 330.934 413.586 334.801 416.979C338.668 420.371 344.639 421.49 351.461 418.037C357.723 414.851 368.022 404.016 374.309 397.729C380.596 391.443 384.341 372.741 385.314 368.387C386.287 364.034 387.527 352.202 387.527 352.202Z" fill="#B5B5B5" stroke="#263238" stroke-linecap="round" stroke-linejoin="round"/>
<path d="M336.236 385.083C336.236 385.083 335.665 388.731 344.128 388.184" stroke="#263238" stroke-linecap="round" stroke-linejoin="round"/>
<path d="M333.695 394.665C333.695 394.665 343.569 401.438 353.443 394.957" stroke="#263238" stroke-linecap="round" stroke-linejoin="round"/>
<path d="M353.443 372.096C353.443 372.096 355.972 367.864 363.317 371.524" stroke="#263238" stroke-width="2" stroke-linecap="round" stroke-linejoin="round"/>
<path d="M333.695 369.567C333.695 371.597 332.746 373.215 331.579 373.215C330.411 373.215 329.463 371.573 329.463 369.567C329.463 367.56 330.411 365.919 331.579 365.919C332.746 365.919 333.695 367.548 333.695 369.567Z" fill="#263238"/>
<path d="M324.672 358.003C324.672 358.003 327.213 352.36 335.616 355.182" stroke="#263238" stroke-linecap="round" stroke-linejoin="round"/>
<path d="M349.77 357.504C349.77 357.504 357.674 353.272 366.417 359.754" stroke="#263238" stroke-linecap="round" stroke-linejoin="round"/>
<path d="M346.414 312.512C328.052 315.674 319.808 329.439 316.902 341.052C316.294 343.63 315.936 346.26 315.832 348.907C316.78 345.952 321.705 332.99 335.665 329.451C351.473 325.511 365.286 330.582 370.077 337.355C374.868 344.128 373.725 352.871 375.44 357.103C376.51 359.778 381.885 363.815 385.691 366.417C386.566 361.225 387.527 352.142 387.527 352.142C387.527 352.142 387.041 335.215 380.754 325.535C374.467 315.856 361.213 309.995 346.414 312.512Z" fill="#263238" stroke="#263238" stroke-linecap="round" stroke-linejoin="round"/>
<path d="M382.772 355.181C382.772 355.181 384.183 340.237 379.951 330.363C375.72 320.489 370.649 316.257 370.649 316.257C370.649 316.257 382.493 322.471 386.724 328.417C390.956 334.364 391.515 348.725 390.372 358.598L381.629 357.188L382.772 355.181Z" fill="#FF6700" stroke="#263238" stroke-miterlimit="10"/>
<path d="M394.142 369.847C392.44 378.954 386.226 385.436 380.255 384.329C374.285 383.223 370.844 374.917 372.546 365.809C374.248 356.702 380.462 350.22 386.421 351.327C392.379 352.433 395.845 360.739 394.142 369.847Z" fill="white" stroke="#263238" stroke-linecap="round" stroke-linejoin="round"/>
<path d="M393.064 371.016C394.355 364.104 391.736 357.816 387.213 356.971C382.691 356.127 377.979 361.045 376.688 367.957C375.397 374.869 378.016 381.157 382.538 382.002C387.06 382.846 391.773 377.928 393.064 371.016Z" fill="#FF6700" stroke="#263238" stroke-miterlimit="10"/>
<path d="M324.125 529.349C326.97 549.535 330.472 567.641 330.472 567.641H309.618C309.618 567.641 304.28 540.147 297.786 524.886C294.138 516.204 293.251 512.726 293.19 511.304C290.356 518.053 272.7 559.749 269.539 561.16C266.097 562.68 253.499 559.944 248.867 558.485C244.234 557.025 243.917 550.471 244.683 547.796C245.45 545.121 277.515 467.625 280.555 462.676C283.405 457.633 285.588 452.242 287.049 446.637C287.426 444.351 286.66 439 290.101 437.103C292.18 435.948 306.797 432.568 318.069 430.063C325.438 428.421 331.36 427.169 331.36 427.169C331.36 427.169 322.24 461.132 320.683 485.184C320.015 495.848 321.899 513.261 324.125 529.337C324.137 529.337 324.137 529.337 324.125 529.349Z" fill="#FF6700" stroke="#263238" stroke-miterlimit="10"/>
<path d="M324.125 529.337C321.498 525.02 310.846 506.488 309.423 487.19C308.147 469.875 315.053 441.457 318.093 430.038C325.462 428.397 331.384 427.144 331.384 427.144C331.384 427.144 322.24 461.132 320.684 485.184C320.015 495.848 321.851 513.261 324.125 529.337Z" fill="#FF6700" stroke="#263238" stroke-miterlimit="10"/>
<path d="M296.132 471.297C297.081 467.175 297.786 464.95 297.786 464.95" stroke="#263238" stroke-miterlimit="10"/>
<path d="M293.591 510.379C293.591 510.379 291.293 502.354 293.202 487.859C293.713 484.029 294.26 480.624 294.807 477.693" stroke="#263238" stroke-miterlimit="10"/>
<path d="M461.545 513.724C452.765 513.334 408.868 485.987 408.868 485.987C408.868 485.987 395.115 512.933 394.738 518.405C394.361 523.877 405.427 567.641 405.427 567.641H358.477C358.477 567.641 357.054 552.283 356.762 535.441C356.628 527.671 356.762 519.633 357.334 512.544C359.243 490.279 366.867 427.424 366.867 427.424L374.516 428.202C374.516 428.202 376.68 428.932 380.073 430.111C389.108 433.249 406.825 439.669 414.595 444.217C425.272 450.467 440.131 460.633 447.427 465.327C454.723 470.021 471.857 480.563 475.286 494.632C478.715 508.701 470.324 514.113 461.545 513.724Z" fill="#FF6700" stroke="#263238" stroke-miterlimit="10"/>
<path d="M380.073 430.063C379.039 445.701 375.999 482.947 369.445 500.968C363.171 518.198 358.659 530.346 356.762 535.441C356.628 527.671 356.762 519.633 357.334 512.544C359.243 490.279 366.867 427.424 366.867 427.424L374.516 428.202C374.516 428.202 376.68 428.883 380.073 430.063Z" stroke="#263238" stroke-miterlimit="10"/>
<path d="M408.868 485.974L391.309 480.515" stroke="#263238" stroke-miterlimit="10"/>
<path d="M383.891 468.683C384.402 474.459 385.995 480.843 390.166 484.418" stroke="#263238" stroke-miterlimit="10"/>
<path d="M384.049 456.681C383.804 458.869 383.678 461.07 383.672 463.272" stroke="#263238" stroke-miterlimit="10"/>
<path d="M381.824 476.988C381.824 476.988 386.019 484.807 390.98 487.543" stroke="#263238" stroke-miterlimit="10"/>
<path d="M408.126 421.028C407.42 418.162 407.053 415.224 407.032 412.273C407.032 407.567 408.126 404.916 406.412 405.074C404.697 405.232 401.706 407.421 400.769 411.154C399.833 414.887 401.864 418.353 402.18 419.605C402.372 420.373 402.478 421.161 402.496 421.952C402.496 421.952 388.877 422.414 386.372 422.414C383.867 422.414 381.362 423.825 381.362 426.172C381.362 428.519 384.025 429.82 384.025 429.82L385.241 430.452C385.241 430.452 383.672 433.419 384.767 434.988C385.372 435.882 386.114 436.674 386.968 437.335C386.639 437.809 386.437 438.36 386.382 438.935C386.327 439.51 386.419 440.089 386.652 440.618C387.056 441.683 387.762 442.609 388.682 443.281C388.682 443.281 386.652 445.166 389.315 447.671C391.978 450.176 397.766 450.334 401.827 450.334C405.889 450.334 409.342 450.48 409.342 450.48L411.069 450.638L425.466 472.088L439.085 456.9C439.085 456.9 419.046 437.444 416.383 434.051C413.72 430.659 408.126 421.028 408.126 421.028Z" fill="#B5B5B5" stroke="#263238" stroke-miterlimit="10"/>
<path d="M438.636 455.088L419.933 472.647C419.933 472.647 437.116 495.557 446.272 507.072C455.429 518.588 472.234 520.448 479.481 514.696C486.728 508.945 487.507 495.994 481.013 487.944C474.52 479.895 438.636 455.088 438.636 455.088Z" fill="#FF6700" stroke="#263238" stroke-miterlimit="10"/>
<path d="M313.485 547.322C313.485 547.322 340.942 552.064 343.508 552.064C346.074 552.064 373.166 545.108 374.99 546.568C376.814 548.027 388.901 558.29 391.832 561.22C393.573 562.95 395.052 564.924 396.221 567.082H370.965L363.28 565.245C363.28 565.245 356.762 568.261 353.102 568.261C349.442 568.261 337.185 567.556 337.185 567.556L315.613 567.203C315.613 567.203 308.353 555.007 313.485 547.322Z" fill="#B5B5B5" stroke="#263238" stroke-miterlimit="10"/>
<path d="M378.65 567.094C378.65 567.094 372.424 560.138 369.871 558.302C368.323 557.184 366.613 556.31 364.8 555.712" stroke="#263238" stroke-miterlimit="10"/>
<path d="M387.077 567.459C387.077 567.459 374.99 554.277 373.531 553.171C371.916 552.234 370.193 551.499 368.399 550.982" stroke="#263238" stroke-miterlimit="10"/>
<path d="M253.439 534.87C253.439 534.87 242.495 543.661 240.622 549.462C238.749 555.262 241.352 562.278 247.213 564.479C253.074 566.68 318.446 567.872 318.446 567.872C317.376 568.371 312.585 563.884 315.309 557.889C317.157 553.827 322.264 548.003 322.264 548.003L267.715 534.092" fill="#FF6700"/>
<path d="M253.439 534.87C253.439 534.87 242.495 543.661 240.622 549.462C238.749 555.262 241.352 562.278 247.213 564.479C253.074 566.68 318.446 567.872 318.446 567.872C317.376 568.371 312.585 563.884 315.309 557.889C317.157 553.827 322.264 548.003 322.264 548.003L267.715 534.092" stroke="#263238" stroke-miterlimit="10"/>
<path d="M345.66 565.391H121.308V568.273H345.66V565.391Z" fill="#263238" stroke="#263238" stroke-miterlimit="10"/>
<path d="M264.273 568.273H124.348L111.41 470.969H251.335L264.273 568.273Z" fill="white" stroke="#263238" stroke-miterlimit="10"/>
<path d="M261.428 568.273H121.515L108.577 470.969H248.49L261.428 568.273Z" fill="white" stroke="#263238" stroke-miterlimit="10"/>
<path d="M132.325 568.273H261.002L251.274 494.827C234.056 505.771 213.08 519.937 190.219 537.387C172.794 550.863 153.222 561.305 132.325 568.273Z" fill="#263238" stroke="#263238" stroke-miterlimit="10"/>
<path d="M180.552 527.197C185.629 527.197 189.745 523.397 189.745 518.709C189.745 514.022 185.629 510.221 180.552 510.221C175.475 510.221 171.359 514.022 171.359 518.709C171.359 523.397 175.475 527.197 180.552 527.197Z" fill="white" stroke="#263238" stroke-miterlimit="10"/>
<path d="M13.5828 568.273H575.168" stroke="#263238" stroke-miterlimit="10"/>
</svg>
