<svg width="110" height="373" viewBox="0 0 210 473" fill="none" xmlns="http://www.w3.org/2000/svg">
<path d="M471 236.5C471 366.011 366.011 471 236.5 471C106.989 471 2 366.011 2 236.5C2 106.989 106.989 2 236.5 2C366.011 2 471 106.989 471 236.5Z" stroke="#FF6700" stroke-width="4"/>
<path d="M276.246 236.5C276.246 258.451 258.451 276.246 236.5 276.246C214.549 276.246 196.754 258.451 196.754 236.5C196.754 214.549 214.549 196.754 236.5 196.754C258.451 196.754 276.246 214.549 276.246 236.5Z" stroke="#FF6700" stroke-width="4"/>
<path d="M315.992 236.5C315.992 280.402 280.402 315.992 236.5 315.992C192.598 315.992 157.008 280.402 157.008 236.5C157.008 192.598 192.598 157.008 236.5 157.008C280.402 157.008 315.992 192.598 315.992 236.5Z" stroke="#FF6700" stroke-width="4"/>
<path d="M355.737 236.5C355.737 302.353 302.353 355.737 236.5 355.737C170.647 355.737 117.263 302.353 117.263 236.5C117.263 170.647 170.647 117.263 236.5 117.263C302.353 117.263 355.737 170.647 355.737 236.5Z" stroke="#FF6700" stroke-width="4"/>
<path d="M395.483 236.5C395.483 324.304 324.304 395.483 236.5 395.483C148.696 395.483 77.5169 324.304 77.5169 236.5C77.5169 148.696 148.696 77.5169 236.5 77.5169C324.304 77.5169 395.483 148.696 395.483 236.5Z" stroke="#FF6700" stroke-width="4"/>
<path d="M435.229 236.5C435.229 346.255 346.255 435.229 236.5 435.229C126.745 435.229 37.7712 346.255 37.7712 236.5C37.7712 126.745 126.745 37.7712 236.5 37.7712C346.255 37.7712 435.229 126.745 435.229 236.5Z" stroke="#FF6700" stroke-width="4"/>
</svg>
