<svg xmlns="http://www.w3.org/2000/svg" xmlns:xlink="http://www.w3.org/1999/xlink" width="150" zoomAndPan="magnify" viewBox="0 0 375 374.999991" height="150" preserveAspectRatio="xMidYMid meet" version="1.0"><defs><g/><clipPath id="id1"><path d="M 101.964844 236.214844 L 152.214844 236.214844 L 152.214844 281.964844 L 101.964844 281.964844 Z M 101.964844 236.214844 " clip-rule="nonzero"/></clipPath><clipPath id="id2"><path d="M 222.566406 104.964844 L 272.746094 104.964844 L 272.746094 150.375 L 222.566406 150.375 Z M 222.566406 104.964844 " clip-rule="nonzero"/></clipPath></defs><g clip-path="url(#id1)"><path fill="#004e98" d="M 143.613281 261.988281 C 125.722656 263.082031 124.84375 263.964844 123.757812 281.964844 C 122.671875 263.964844 121.792969 263.082031 103.902344 261.988281 C 121.792969 260.898438 122.671875 260.011719 123.757812 242.015625 C 124.84375 260.011719 125.722656 260.898438 143.613281 261.988281 Z M 142.84375 236.214844 C 142.332031 244.691406 141.917969 245.109375 133.492188 245.621094 C 141.917969 246.136719 142.332031 246.550781 142.84375 255.03125 C 143.355469 246.550781 143.769531 246.136719 152.195312 245.621094 C 143.769531 245.109375 143.355469 244.691406 142.84375 236.214844 Z M 106.464844 271.527344 C 106.21875 275.589844 106.023438 275.789062 101.980469 276.035156 C 106.023438 276.28125 106.21875 276.480469 106.464844 280.546875 C 106.710938 276.480469 106.910156 276.28125 110.949219 276.035156 C 106.910156 275.789062 106.710938 275.589844 106.464844 271.527344 Z M 106.464844 243.6875 C 106.359375 245.429688 106.277344 245.515625 104.542969 245.621094 C 106.277344 245.726562 106.359375 245.8125 106.464844 247.554688 C 106.570312 245.8125 106.65625 245.726562 108.386719 245.621094 C 106.65625 245.515625 106.570312 245.429688 106.464844 243.6875 Z M 137.527344 274.296875 C 137.421875 276.039062 137.339844 276.125 135.605469 276.230469 C 137.339844 276.335938 137.421875 276.421875 137.527344 278.164062 C 137.632812 276.421875 137.71875 276.335938 139.449219 276.230469 C 137.71875 276.125 137.632812 276.039062 137.527344 274.296875 Z M 137.527344 274.296875 " fill-opacity="1" fill-rule="nonzero"/></g><g fill="#2e2f31" fill-opacity="1"><g transform="translate(144.298881, 170.575258)"><g><path d="M 20.015625 -14.140625 C 20.648438 -13.253906 21.117188 -12.320312 21.421875 -11.34375 C 21.722656 -10.363281 21.875 -9.3125 21.875 -8.1875 C 21.875 -5.34375 20.851562 -2.988281 18.8125 -1.125 C 16.769531 0.726562 14.257812 1.65625 11.28125 1.65625 C 8 1.65625 5.265625 0.644531 3.078125 -1.375 C 0.890625 -3.40625 -0.203125 -5.8125 -0.203125 -8.59375 C 0.671875 -9.039062 1.734375 -9.421875 2.984375 -9.734375 C 4.242188 -10.054688 5.289062 -10.21875 6.125 -10.21875 C 6.125 -8.113281 6.515625 -6.421875 7.296875 -5.140625 C 8.078125 -3.859375 9.144531 -3.21875 10.5 -3.21875 C 11.46875 -3.21875 12.210938 -3.488281 12.734375 -4.03125 C 13.253906 -4.570312 13.515625 -5.3125 13.515625 -6.25 C 13.515625 -7.039062 13.242188 -7.816406 12.703125 -8.578125 C 12.171875 -9.335938 10.984375 -10.421875 9.140625 -11.828125 C 7.753906 -12.867188 6.726562 -13.707031 6.0625 -14.34375 C 5.40625 -14.976562 4.84375 -15.597656 4.375 -16.203125 C 3.71875 -17.140625 3.222656 -18.109375 2.890625 -19.109375 C 2.554688 -20.117188 2.390625 -21.203125 2.390625 -22.359375 C 2.390625 -25.117188 3.375 -27.363281 5.34375 -29.09375 C 7.320312 -30.832031 9.910156 -31.703125 13.109375 -31.703125 C 15.941406 -31.703125 18.21875 -31.019531 19.9375 -29.65625 C 21.664062 -28.300781 22.804688 -26.285156 23.359375 -23.609375 C 22.554688 -23.085938 21.644531 -22.679688 20.625 -22.390625 C 19.601562 -22.097656 18.269531 -21.894531 16.625 -21.78125 C 16.375 -23.488281 15.957031 -24.710938 15.375 -25.453125 C 14.800781 -26.203125 14.003906 -26.578125 12.984375 -26.578125 C 12.347656 -26.578125 11.84375 -26.378906 11.46875 -25.984375 C 11.101562 -25.585938 10.921875 -25.054688 10.921875 -24.390625 C 10.921875 -23.484375 11.191406 -22.613281 11.734375 -21.78125 C 12.285156 -20.957031 13.5 -19.84375 15.375 -18.4375 C 16.757812 -17.414062 17.765625 -16.601562 18.390625 -16 C 19.023438 -15.394531 19.566406 -14.773438 20.015625 -14.140625 Z M 20.015625 -14.140625 "/></g></g></g><g fill="#2e2f31" fill-opacity="1"><g transform="translate(167.444772, 170.575258)"><g><path d="M 12.78125 -9.59375 C 13.71875 -9.476562 14.671875 -9.226562 15.640625 -8.84375 C 16.617188 -8.457031 17.5 -7.960938 18.28125 -7.359375 C 18.28125 -5.367188 17.65625 -3.6875 16.40625 -2.3125 C 15.164062 -0.9375 13.445312 -0.25 11.25 -0.25 C 8.457031 -0.25 6.296875 -1.234375 4.765625 -3.203125 C 3.242188 -5.171875 2.484375 -8.03125 2.484375 -11.78125 C 2.484375 -12.664062 2.492188 -13.582031 2.515625 -14.53125 C 2.546875 -15.476562 2.601562 -16.476562 2.6875 -17.53125 C 2.132812 -17.613281 1.609375 -17.707031 1.109375 -17.8125 C 0.617188 -17.925781 0.179688 -18.039062 -0.203125 -18.15625 C -0.203125 -19.03125 -0.117188 -19.867188 0.046875 -20.671875 C 0.210938 -21.472656 0.445312 -22.09375 0.75 -22.53125 C 1.019531 -22.445312 1.351562 -22.359375 1.75 -22.265625 C 2.15625 -22.171875 2.644531 -22.082031 3.21875 -22 C 3.382812 -23.125 3.554688 -24.109375 3.734375 -24.953125 C 3.921875 -25.796875 4.109375 -26.546875 4.296875 -27.203125 C 5.953125 -27.203125 7.554688 -27.097656 9.109375 -26.890625 C 10.671875 -26.679688 11.9375 -26.414062 12.90625 -26.09375 C 12.738281 -25.425781 12.554688 -24.6875 12.359375 -23.875 C 12.171875 -23.0625 12.003906 -22.226562 11.859375 -21.375 C 13.023438 -21.34375 14.132812 -21.347656 15.1875 -21.390625 C 16.25 -21.429688 17.179688 -21.507812 17.984375 -21.625 C 17.984375 -20.988281 17.914062 -20.269531 17.78125 -19.46875 C 17.644531 -18.675781 17.453125 -17.945312 17.203125 -17.28125 C 16.515625 -17.144531 15.628906 -17.039062 14.546875 -16.96875 C 13.472656 -16.90625 12.34375 -16.882812 11.15625 -16.90625 C 11.019531 -15.863281 10.910156 -14.816406 10.828125 -13.765625 C 10.742188 -12.722656 10.703125 -11.734375 10.703125 -10.796875 C 10.703125 -8.472656 10.785156 -6.90625 10.953125 -6.09375 C 11.117188 -5.28125 11.394531 -4.875 11.78125 -4.875 C 12.03125 -4.875 12.25 -5.296875 12.4375 -6.140625 C 12.632812 -6.984375 12.75 -8.132812 12.78125 -9.59375 Z M 12.78125 -9.59375 "/></g></g></g><g fill="#2e2f31" fill-opacity="1"><g transform="translate(186.457471, 170.575258)"><g><path d="M 21.328125 -14.796875 C 21.328125 -13.066406 21.09375 -10.703125 20.625 -7.703125 C 20.15625 -4.710938 19.550781 -1.632812 18.8125 1.53125 C 17.84375 1.53125 16.804688 1.46875 15.703125 1.34375 C 14.609375 1.21875 13.535156 1.046875 12.484375 0.828125 C 12.535156 0.359375 12.578125 0 12.609375 -0.25 C 12.640625 -0.5 12.664062 -0.71875 12.6875 -0.90625 C 12.113281 -0.65625 11.476562 -0.460938 10.78125 -0.328125 C 10.09375 -0.191406 9.351562 -0.125 8.5625 -0.125 C 6.269531 -0.125 4.4375 -0.695312 3.0625 -1.84375 C 1.6875 -2.988281 1 -4.523438 1 -6.453125 C 1 -8.410156 1.789062 -9.878906 3.375 -10.859375 C 4.957031 -11.835938 7.347656 -12.328125 10.546875 -12.328125 C 11.585938 -12.328125 12.285156 -12.328125 12.640625 -12.328125 C 13.003906 -12.328125 13.296875 -12.3125 13.515625 -12.28125 C 13.492188 -14.875 13.328125 -16.640625 13.015625 -17.578125 C 12.710938 -18.515625 12.21875 -18.984375 11.53125 -18.984375 C 10.875 -18.984375 10.300781 -18.535156 9.8125 -17.640625 C 9.332031 -16.742188 9.078125 -15.601562 9.046875 -14.21875 C 7.285156 -14.21875 5.816406 -14.546875 4.640625 -15.203125 C 3.472656 -15.867188 2.671875 -16.820312 2.234375 -18.0625 C 2.753906 -19.5 3.9375 -20.726562 5.78125 -21.75 C 7.632812 -22.769531 9.773438 -23.28125 12.203125 -23.28125 C 15.203125 -23.28125 17.472656 -22.5625 19.015625 -21.125 C 20.554688 -19.695312 21.328125 -17.585938 21.328125 -14.796875 Z M 9.21875 -5.875 C 9.21875 -5.238281 9.382812 -4.75 9.71875 -4.40625 C 10.050781 -4.0625 10.53125 -3.890625 11.15625 -3.890625 C 11.539062 -3.890625 11.882812 -3.929688 12.1875 -4.015625 C 12.5 -4.097656 12.804688 -4.21875 13.109375 -4.375 C 13.210938 -5.34375 13.285156 -6.175781 13.328125 -6.875 C 13.367188 -7.582031 13.40625 -8.226562 13.4375 -8.8125 C 12 -8.726562 10.9375 -8.453125 10.25 -7.984375 C 9.5625 -7.515625 9.21875 -6.8125 9.21875 -5.875 Z M 9.21875 -5.875 "/></g></g></g><g fill="#2e2f31" fill-opacity="1"><g transform="translate(209.314033, 170.575258)"><g><path d="M 10.5 -8.390625 C 10.550781 -7.035156 10.648438 -5.648438 10.796875 -4.234375 C 10.953125 -2.816406 11.140625 -1.390625 11.359375 0.046875 C 10.671875 0.285156 9.898438 0.445312 9.046875 0.53125 C 8.191406 0.613281 7.253906 0.613281 6.234375 0.53125 C 5.660156 0.476562 5.191406 0.410156 4.828125 0.328125 C 4.472656 0.242188 4.128906 0.148438 3.796875 0.046875 C 3.054688 -3.179688 2.519531 -6.867188 2.1875 -11.015625 C 1.851562 -15.160156 1.8125 -18.804688 2.0625 -21.953125 C 2.664062 -22.148438 3.328125 -22.296875 4.046875 -22.390625 C 4.765625 -22.484375 5.523438 -22.53125 6.328125 -22.53125 C 7.265625 -22.53125 8.140625 -22.460938 8.953125 -22.328125 C 9.765625 -22.191406 10.488281 -22 11.125 -21.75 C 11.007812 -21.332031 10.910156 -20.84375 10.828125 -20.28125 C 10.742188 -19.71875 10.675781 -19.085938 10.625 -18.390625 C 11.3125 -19.960938 12.148438 -21.195312 13.140625 -22.09375 C 14.128906 -22.988281 15.148438 -23.4375 16.203125 -23.4375 C 17.742188 -23.4375 18.96875 -22.796875 19.875 -21.515625 C 20.789062 -20.234375 21.25 -18.460938 21.25 -16.203125 C 21.25 -15.816406 21.25 -15.519531 21.25 -15.3125 C 21.25 -15.101562 21.234375 -14.921875 21.203125 -14.765625 C 20.347656 -14.460938 19.28125 -14.253906 18 -14.140625 C 16.71875 -14.023438 15.332031 -14.007812 13.84375 -14.09375 C 13.875 -14.507812 13.894531 -14.789062 13.90625 -14.9375 C 13.914062 -15.09375 13.921875 -15.238281 13.921875 -15.375 C 13.921875 -16.0625 13.835938 -16.59375 13.671875 -16.96875 C 13.515625 -17.34375 13.269531 -17.53125 12.9375 -17.53125 C 12.414062 -17.53125 11.929688 -16.726562 11.484375 -15.125 C 11.046875 -13.53125 10.71875 -11.285156 10.5 -8.390625 Z M 10.5 -8.390625 "/></g></g></g><g clip-path="url(#id2)"><path fill="#004e98" d="M 231.09375 124.601562 C 248.984375 123.507812 249.863281 122.625 250.949219 104.625 C 252.035156 122.625 252.914062 123.507812 270.804688 124.601562 C 252.914062 125.691406 252.035156 126.574219 250.949219 144.574219 C 249.863281 126.574219 248.984375 125.691406 231.09375 124.601562 Z M 231.863281 150.375 C 232.375 141.898438 232.789062 141.480469 241.214844 140.96875 C 232.789062 140.453125 232.375 140.035156 231.863281 131.558594 C 231.351562 140.035156 230.9375 140.453125 222.511719 140.96875 C 230.9375 141.480469 231.351562 141.898438 231.863281 150.375 Z M 268.242188 115.0625 C 268.488281 111 268.6875 110.800781 272.726562 110.554688 C 268.6875 110.308594 268.488281 110.105469 268.242188 106.042969 C 268 110.105469 267.800781 110.308594 263.757812 110.554688 C 267.800781 110.800781 268 111 268.242188 115.0625 Z M 268.242188 142.898438 C 268.347656 141.15625 268.433594 141.074219 270.164062 140.96875 C 268.433594 140.863281 268.347656 140.777344 268.242188 139.035156 C 268.136719 140.777344 268.054688 140.863281 266.320312 140.96875 C 268.054688 141.074219 268.136719 141.15625 268.242188 142.898438 Z M 237.179688 112.292969 C 237.285156 110.550781 237.371094 110.464844 239.101562 110.359375 C 237.371094 110.253906 237.285156 110.167969 237.179688 108.425781 C 237.074219 110.167969 236.988281 110.253906 235.257812 110.359375 C 236.988281 110.464844 237.074219 110.550781 237.179688 112.292969 Z M 237.179688 112.292969 " fill-opacity="1" fill-rule="nonzero"/></g><g fill="#000000" fill-opacity="1"><g transform="translate(100.552816, 235.148305)"><g><path d="M 11.28125 -21.75 C 11.28125 -18 11.195312 -14.078125 11.03125 -9.984375 C 10.875 -5.890625 10.65625 -2.394531 10.375 0.5 C 9.601562 0.71875 8.546875 0.910156 7.203125 1.078125 C 5.867188 1.242188 4.640625 1.328125 3.515625 1.328125 C 3.515625 -4.429688 3.390625 -9.664062 3.140625 -14.375 C 2.890625 -19.09375 2.519531 -23.328125 2.03125 -27.078125 C 2.6875 -27.515625 3.460938 -27.859375 4.359375 -28.109375 C 5.253906 -28.359375 6.195312 -28.484375 7.1875 -28.484375 C 7.9375 -28.484375 8.609375 -28.445312 9.203125 -28.375 C 9.796875 -28.3125 10.445312 -28.179688 11.15625 -27.984375 C 11.1875 -27.128906 11.210938 -26.171875 11.234375 -25.109375 C 11.265625 -24.054688 11.28125 -22.9375 11.28125 -21.75 Z M 11.28125 -21.75 "/></g></g></g><g fill="#000000" fill-opacity="1"><g transform="translate(114.275025, 235.148305)"><g><path d="M 9.96875 -4.09375 C 9.96875 -3.320312 9.972656 -2.554688 9.984375 -1.796875 C 9.992188 -1.035156 10.03125 -0.132812 10.09375 0.90625 C 9.320312 1.125 8.273438 1.316406 6.953125 1.484375 C 5.628906 1.648438 4.398438 1.734375 3.265625 1.734375 C 2.847656 -1.265625 2.476562 -5.117188 2.15625 -9.828125 C 1.84375 -14.546875 1.6875 -18.503906 1.6875 -21.703125 C 2.320312 -22.035156 3.21875 -22.296875 4.375 -22.484375 C 5.539062 -22.679688 6.726562 -22.78125 7.9375 -22.78125 C 8.488281 -22.78125 9.023438 -22.75 9.546875 -22.6875 C 10.066406 -22.632812 10.59375 -22.554688 11.125 -22.453125 C 10.988281 -21.460938 10.890625 -20.742188 10.828125 -20.296875 C 10.773438 -19.859375 10.734375 -19.421875 10.703125 -18.984375 C 11.503906 -20.140625 12.414062 -21.003906 13.4375 -21.578125 C 14.457031 -22.160156 15.570312 -22.453125 16.78125 -22.453125 C 18.707031 -22.453125 20.164062 -21.753906 21.15625 -20.359375 C 22.15625 -18.972656 22.65625 -16.914062 22.65625 -14.1875 C 22.65625 -12.03125 22.472656 -9.550781 22.109375 -6.75 C 21.753906 -3.957031 21.382812 -1.84375 21 -0.40625 C 19.925781 -0.40625 18.738281 -0.46875 17.4375 -0.59375 C 16.144531 -0.71875 14.660156 -0.921875 12.984375 -1.203125 C 13.453125 -3.785156 13.816406 -6.203125 14.078125 -8.453125 C 14.335938 -10.703125 14.46875 -12.53125 14.46875 -13.9375 C 14.46875 -14.707031 14.359375 -15.273438 14.140625 -15.640625 C 13.921875 -16.015625 13.578125 -16.203125 13.109375 -16.203125 C 12.585938 -16.203125 12.078125 -15.898438 11.578125 -15.296875 C 11.078125 -14.691406 10.632812 -13.851562 10.25 -12.78125 C 10.144531 -11.039062 10.070312 -9.445312 10.03125 -8 C 9.988281 -6.550781 9.96875 -5.25 9.96875 -4.09375 Z M 9.96875 -4.09375 "/></g></g></g><g fill="#000000" fill-opacity="1"><g transform="translate(138.991527, 235.148305)"><g><path d="M 12.6875 -13.890625 C 15.164062 -12.398438 16.828125 -11.0625 17.671875 -9.875 C 18.515625 -8.695312 18.9375 -7.375 18.9375 -5.90625 C 18.9375 -3.675781 17.96875 -1.820312 16.03125 -0.34375 C 14.101562 1.125 11.75 1.859375 8.96875 1.859375 C 6.601562 1.859375 4.617188 1.144531 3.015625 -0.28125 C 1.421875 -1.71875 0.625 -3.414062 0.625 -5.375 C 1.257812 -5.675781 2.097656 -5.929688 3.140625 -6.140625 C 4.191406 -6.347656 5.128906 -6.453125 5.953125 -6.453125 C 5.953125 -5.234375 6.207031 -4.25 6.71875 -3.5 C 7.226562 -2.757812 7.953125 -2.390625 8.890625 -2.390625 C 9.578125 -2.390625 10.097656 -2.539062 10.453125 -2.84375 C 10.816406 -3.15625 11 -3.597656 11 -4.171875 C 11 -4.753906 10.769531 -5.320312 10.3125 -5.875 C 9.863281 -6.425781 8.851562 -7.179688 7.28125 -8.140625 C 4.9375 -9.597656 3.378906 -10.882812 2.609375 -12 C 1.835938 -13.125 1.453125 -14.390625 1.453125 -15.796875 C 1.453125 -17.992188 2.296875 -19.816406 3.984375 -21.265625 C 5.679688 -22.710938 7.851562 -23.4375 10.5 -23.4375 C 13.113281 -23.4375 15.238281 -22.859375 16.875 -21.703125 C 18.519531 -20.546875 19.566406 -18.921875 20.015625 -16.828125 C 19.210938 -16.304688 18.300781 -15.898438 17.28125 -15.609375 C 16.257812 -15.316406 14.921875 -15.113281 13.265625 -15 C 13.078125 -16.300781 12.78125 -17.25 12.375 -17.84375 C 11.976562 -18.4375 11.4375 -18.734375 10.75 -18.734375 C 10.28125 -18.734375 9.914062 -18.59375 9.65625 -18.3125 C 9.394531 -18.039062 9.265625 -17.671875 9.265625 -17.203125 C 9.265625 -16.753906 9.46875 -16.300781 9.875 -15.84375 C 10.289062 -15.394531 11.226562 -14.742188 12.6875 -13.890625 Z M 12.6875 -13.890625 "/></g></g></g><g fill="#000000" fill-opacity="1"><g transform="translate(159.616171, 235.148305)"><g><path d="M 12.78125 -9.59375 C 13.71875 -9.476562 14.671875 -9.226562 15.640625 -8.84375 C 16.617188 -8.457031 17.5 -7.960938 18.28125 -7.359375 C 18.28125 -5.367188 17.65625 -3.6875 16.40625 -2.3125 C 15.164062 -0.9375 13.445312 -0.25 11.25 -0.25 C 8.457031 -0.25 6.296875 -1.234375 4.765625 -3.203125 C 3.242188 -5.171875 2.484375 -8.03125 2.484375 -11.78125 C 2.484375 -12.664062 2.492188 -13.582031 2.515625 -14.53125 C 2.546875 -15.476562 2.601562 -16.476562 2.6875 -17.53125 C 2.132812 -17.613281 1.609375 -17.707031 1.109375 -17.8125 C 0.617188 -17.925781 0.179688 -18.039062 -0.203125 -18.15625 C -0.203125 -19.03125 -0.117188 -19.867188 0.046875 -20.671875 C 0.210938 -21.472656 0.445312 -22.09375 0.75 -22.53125 C 1.019531 -22.445312 1.351562 -22.359375 1.75 -22.265625 C 2.15625 -22.171875 2.644531 -22.082031 3.21875 -22 C 3.382812 -23.125 3.554688 -24.109375 3.734375 -24.953125 C 3.921875 -25.796875 4.109375 -26.546875 4.296875 -27.203125 C 5.953125 -27.203125 7.554688 -27.097656 9.109375 -26.890625 C 10.671875 -26.679688 11.9375 -26.414062 12.90625 -26.09375 C 12.738281 -25.425781 12.554688 -24.6875 12.359375 -23.875 C 12.171875 -23.0625 12.003906 -22.226562 11.859375 -21.375 C 13.023438 -21.34375 14.132812 -21.347656 15.1875 -21.390625 C 16.25 -21.429688 17.179688 -21.507812 17.984375 -21.625 C 17.984375 -20.988281 17.914062 -20.269531 17.78125 -19.46875 C 17.644531 -18.675781 17.453125 -17.945312 17.203125 -17.28125 C 16.515625 -17.144531 15.628906 -17.039062 14.546875 -16.96875 C 13.472656 -16.90625 12.34375 -16.882812 11.15625 -16.90625 C 11.019531 -15.863281 10.910156 -14.816406 10.828125 -13.765625 C 10.742188 -12.722656 10.703125 -11.734375 10.703125 -10.796875 C 10.703125 -8.472656 10.785156 -6.90625 10.953125 -6.09375 C 11.117188 -5.28125 11.394531 -4.875 11.78125 -4.875 C 12.03125 -4.875 12.25 -5.296875 12.4375 -6.140625 C 12.632812 -6.984375 12.75 -8.132812 12.78125 -9.59375 Z M 12.78125 -9.59375 "/></g></g></g><g fill="#000000" fill-opacity="1"><g transform="translate(178.628869, 235.148305)"><g><path d="M 8.390625 -31.25 C 9.210938 -31.25 9.984375 -31.179688 10.703125 -31.046875 C 11.421875 -30.910156 12.023438 -30.71875 12.515625 -30.46875 C 12.273438 -29.894531 12 -29.046875 11.6875 -27.921875 C 11.382812 -26.804688 11.164062 -25.820312 11.03125 -24.96875 C 10.09375 -24.800781 9.046875 -24.679688 7.890625 -24.609375 C 6.734375 -24.546875 5.425781 -24.53125 3.96875 -24.5625 C 3.769531 -25.164062 3.625 -25.769531 3.53125 -26.375 C 3.4375 -26.976562 3.390625 -27.570312 3.390625 -28.15625 C 3.390625 -28.59375 3.410156 -28.976562 3.453125 -29.3125 C 3.492188 -29.644531 3.554688 -29.945312 3.640625 -30.21875 C 4.265625 -30.582031 4.96875 -30.84375 5.75 -31 C 6.539062 -31.164062 7.421875 -31.25 8.390625 -31.25 Z M 2.640625 -20.84375 C 3.378906 -21.28125 4.242188 -21.609375 5.234375 -21.828125 C 6.234375 -22.046875 7.3125 -22.15625 8.46875 -22.15625 C 9.019531 -22.15625 9.5625 -22.128906 10.09375 -22.078125 C 10.632812 -22.023438 11.15625 -21.957031 11.65625 -21.875 C 11.050781 -20.082031 10.519531 -17.226562 10.0625 -13.3125 C 9.601562 -9.394531 9.289062 -5.109375 9.125 -0.453125 C 8.550781 -0.148438 7.816406 0.0859375 6.921875 0.265625 C 6.023438 0.441406 5.09375 0.53125 4.125 0.53125 C 3.71875 0.53125 3.359375 0.515625 3.046875 0.484375 C 2.742188 0.460938 2.484375 0.425781 2.265625 0.375 C 1.859375 -3.570312 1.679688 -7.351562 1.734375 -10.96875 C 1.785156 -14.59375 2.085938 -17.882812 2.640625 -20.84375 Z M 2.640625 -20.84375 "/></g></g></g><g fill="#000000" fill-opacity="1"><g transform="translate(191.193783, 235.148305)"><g><path d="M 12.78125 -9.59375 C 13.71875 -9.476562 14.671875 -9.226562 15.640625 -8.84375 C 16.617188 -8.457031 17.5 -7.960938 18.28125 -7.359375 C 18.28125 -5.367188 17.65625 -3.6875 16.40625 -2.3125 C 15.164062 -0.9375 13.445312 -0.25 11.25 -0.25 C 8.457031 -0.25 6.296875 -1.234375 4.765625 -3.203125 C 3.242188 -5.171875 2.484375 -8.03125 2.484375 -11.78125 C 2.484375 -12.664062 2.492188 -13.582031 2.515625 -14.53125 C 2.546875 -15.476562 2.601562 -16.476562 2.6875 -17.53125 C 2.132812 -17.613281 1.609375 -17.707031 1.109375 -17.8125 C 0.617188 -17.925781 0.179688 -18.039062 -0.203125 -18.15625 C -0.203125 -19.03125 -0.117188 -19.867188 0.046875 -20.671875 C 0.210938 -21.472656 0.445312 -22.09375 0.75 -22.53125 C 1.019531 -22.445312 1.351562 -22.359375 1.75 -22.265625 C 2.15625 -22.171875 2.644531 -22.082031 3.21875 -22 C 3.382812 -23.125 3.554688 -24.109375 3.734375 -24.953125 C 3.921875 -25.796875 4.109375 -26.546875 4.296875 -27.203125 C 5.953125 -27.203125 7.554688 -27.097656 9.109375 -26.890625 C 10.671875 -26.679688 11.9375 -26.414062 12.90625 -26.09375 C 12.738281 -25.425781 12.554688 -24.6875 12.359375 -23.875 C 12.171875 -23.0625 12.003906 -22.226562 11.859375 -21.375 C 13.023438 -21.34375 14.132812 -21.347656 15.1875 -21.390625 C 16.25 -21.429688 17.179688 -21.507812 17.984375 -21.625 C 17.984375 -20.988281 17.914062 -20.269531 17.78125 -19.46875 C 17.644531 -18.675781 17.453125 -17.945312 17.203125 -17.28125 C 16.515625 -17.144531 15.628906 -17.039062 14.546875 -16.96875 C 13.472656 -16.90625 12.34375 -16.882812 11.15625 -16.90625 C 11.019531 -15.863281 10.910156 -14.816406 10.828125 -13.765625 C 10.742188 -12.722656 10.703125 -11.734375 10.703125 -10.796875 C 10.703125 -8.472656 10.785156 -6.90625 10.953125 -6.09375 C 11.117188 -5.28125 11.394531 -4.875 11.78125 -4.875 C 12.03125 -4.875 12.25 -5.296875 12.4375 -6.140625 C 12.632812 -6.984375 12.75 -8.132812 12.78125 -9.59375 Z M 12.78125 -9.59375 "/></g></g></g><g fill="#000000" fill-opacity="1"><g transform="translate(210.206481, 235.148305)"><g><path d="M 10.171875 0.40625 C 7.242188 0.40625 5.019531 -0.566406 3.5 -2.515625 C 1.988281 -4.472656 1.234375 -7.285156 1.234375 -10.953125 C 1.234375 -12.960938 1.445312 -15.0625 1.875 -17.25 C 2.300781 -19.445312 2.722656 -20.945312 3.140625 -21.75 C 3.773438 -21.914062 4.414062 -22.039062 5.0625 -22.125 C 5.707031 -22.207031 6.304688 -22.25 6.859375 -22.25 C 7.710938 -22.25 8.445312 -22.191406 9.0625 -22.078125 C 9.6875 -21.960938 10.164062 -21.8125 10.5 -21.625 C 10.25 -20.132812 10.054688 -18.617188 9.921875 -17.078125 C 9.785156 -15.535156 9.71875 -14.046875 9.71875 -12.609375 C 9.71875 -10.078125 9.867188 -8.097656 10.171875 -6.671875 C 10.472656 -5.253906 10.898438 -4.546875 11.453125 -4.546875 C 11.972656 -4.546875 12.382812 -5.359375 12.6875 -6.984375 C 12.988281 -8.609375 13.140625 -10.734375 13.140625 -13.359375 C 13.140625 -14.597656 13.082031 -15.882812 12.96875 -17.21875 C 12.863281 -18.550781 12.757812 -19.484375 12.65625 -20.015625 C 13.695312 -20.453125 14.988281 -20.800781 16.53125 -21.0625 C 18.082031 -21.320312 19.585938 -21.453125 21.046875 -21.453125 C 21.179688 -20.816406 21.28125 -20.003906 21.34375 -19.015625 C 21.414062 -18.023438 21.453125 -16.953125 21.453125 -15.796875 C 21.453125 -10.503906 20.5 -6.476562 18.59375 -3.71875 C 16.695312 -0.96875 13.890625 0.40625 10.171875 0.40625 Z M 10.171875 0.40625 "/></g></g></g><g fill="#000000" fill-opacity="1"><g transform="translate(232.897722, 235.148305)"><g><path d="M 12.78125 -9.59375 C 13.71875 -9.476562 14.671875 -9.226562 15.640625 -8.84375 C 16.617188 -8.457031 17.5 -7.960938 18.28125 -7.359375 C 18.28125 -5.367188 17.65625 -3.6875 16.40625 -2.3125 C 15.164062 -0.9375 13.445312 -0.25 11.25 -0.25 C 8.457031 -0.25 6.296875 -1.234375 4.765625 -3.203125 C 3.242188 -5.171875 2.484375 -8.03125 2.484375 -11.78125 C 2.484375 -12.664062 2.492188 -13.582031 2.515625 -14.53125 C 2.546875 -15.476562 2.601562 -16.476562 2.6875 -17.53125 C 2.132812 -17.613281 1.609375 -17.707031 1.109375 -17.8125 C 0.617188 -17.925781 0.179688 -18.039062 -0.203125 -18.15625 C -0.203125 -19.03125 -0.117188 -19.867188 0.046875 -20.671875 C 0.210938 -21.472656 0.445312 -22.09375 0.75 -22.53125 C 1.019531 -22.445312 1.351562 -22.359375 1.75 -22.265625 C 2.15625 -22.171875 2.644531 -22.082031 3.21875 -22 C 3.382812 -23.125 3.554688 -24.109375 3.734375 -24.953125 C 3.921875 -25.796875 4.109375 -26.546875 4.296875 -27.203125 C 5.953125 -27.203125 7.554688 -27.097656 9.109375 -26.890625 C 10.671875 -26.679688 11.9375 -26.414062 12.90625 -26.09375 C 12.738281 -25.425781 12.554688 -24.6875 12.359375 -23.875 C 12.171875 -23.0625 12.003906 -22.226562 11.859375 -21.375 C 13.023438 -21.34375 14.132812 -21.347656 15.1875 -21.390625 C 16.25 -21.429688 17.179688 -21.507812 17.984375 -21.625 C 17.984375 -20.988281 17.914062 -20.269531 17.78125 -19.46875 C 17.644531 -18.675781 17.453125 -17.945312 17.203125 -17.28125 C 16.515625 -17.144531 15.628906 -17.039062 14.546875 -16.96875 C 13.472656 -16.90625 12.34375 -16.882812 11.15625 -16.90625 C 11.019531 -15.863281 10.910156 -14.816406 10.828125 -13.765625 C 10.742188 -12.722656 10.703125 -11.734375 10.703125 -10.796875 C 10.703125 -8.472656 10.785156 -6.90625 10.953125 -6.09375 C 11.117188 -5.28125 11.394531 -4.875 11.78125 -4.875 C 12.03125 -4.875 12.25 -5.296875 12.4375 -6.140625 C 12.632812 -6.984375 12.75 -8.132812 12.78125 -9.59375 Z M 12.78125 -9.59375 "/></g></g></g><g fill="#000000" fill-opacity="1"><g transform="translate(251.910421, 235.148305)"><g><path d="M 10 -14.3125 C 10.332031 -14.226562 10.65625 -14.164062 10.96875 -14.125 C 11.289062 -14.082031 11.5625 -14.0625 11.78125 -14.0625 C 12 -14.0625 12.253906 -14.066406 12.546875 -14.078125 C 12.835938 -14.085938 13.035156 -14.109375 13.140625 -14.140625 C 13.304688 -14.796875 13.4375 -15.414062 13.53125 -16 C 13.632812 -16.582031 13.6875 -17.109375 13.6875 -17.578125 C 13.6875 -18.148438 13.609375 -18.570312 13.453125 -18.84375 C 13.304688 -19.125 13.082031 -19.265625 12.78125 -19.265625 C 12.226562 -19.265625 11.703125 -18.816406 11.203125 -17.921875 C 10.703125 -17.023438 10.300781 -15.820312 10 -14.3125 Z M 15 -7.9375 C 16.050781 -7.75 17.117188 -7.367188 18.203125 -6.796875 C 19.296875 -6.234375 20.1875 -5.59375 20.875 -4.875 C 20.65625 -4.15625 20.144531 -3.382812 19.34375 -2.5625 C 18.550781 -1.738281 17.601562 -1.050781 16.5 -0.5 C 15.613281 -0.0507812 14.65625 0.285156 13.625 0.515625 C 12.59375 0.753906 11.507812 0.875 10.375 0.875 C 7.507812 0.875 5.269531 0.0390625 3.65625 -1.625 C 2.039062 -3.300781 1.234375 -5.570312 1.234375 -8.4375 C 1.234375 -10.226562 1.515625 -11.984375 2.078125 -13.703125 C 2.648438 -15.429688 3.457031 -16.992188 4.5 -18.390625 C 5.6875 -19.960938 7.050781 -21.191406 8.59375 -22.078125 C 10.144531 -22.960938 11.734375 -23.40625 13.359375 -23.40625 C 15.671875 -23.40625 17.515625 -22.816406 18.890625 -21.640625 C 20.273438 -20.472656 20.96875 -18.910156 20.96875 -16.953125 C 20.96875 -16.066406 20.875 -15.09375 20.6875 -14.03125 C 20.507812 -12.96875 20.285156 -12.050781 20.015625 -11.28125 C 19.160156 -10.875 18.101562 -10.566406 16.84375 -10.359375 C 15.59375 -10.148438 14.097656 -10.046875 12.359375 -10.046875 C 11.867188 -10.046875 11.378906 -10.070312 10.890625 -10.125 C 10.410156 -10.1875 9.9375 -10.253906 9.46875 -10.328125 C 9.4375 -10.171875 9.421875 -9.988281 9.421875 -9.78125 C 9.421875 -9.570312 9.421875 -9.257812 9.421875 -8.84375 C 9.421875 -7.1875 9.632812 -5.914062 10.0625 -5.03125 C 10.488281 -4.15625 11.101562 -3.71875 11.90625 -3.71875 C 12.425781 -3.71875 12.988281 -4.144531 13.59375 -5 C 14.207031 -5.851562 14.675781 -6.832031 15 -7.9375 Z M 15 -7.9375 "/></g></g></g><g fill="#ff6700" fill-opacity="1"><g transform="translate(99.500439, 202.169255)"><g><path d="M 3.054688 0 C 5.480469 -0.0703125 6.640625 -0.0351562 9.097656 0 C 10.117188 0 10.960938 -0.316406 10.925781 -1.476562 C 10.925781 -2.667969 10.011719 -2.84375 9.027344 -2.808594 L 5.480469 -2.738281 C 4.109375 -2.703125 3.6875 -3.160156 3.722656 -4.566406 C 3.828125 -9.765625 3.828125 -15 3.863281 -20.234375 C 3.863281 -20.691406 3.898438 -21.113281 3.863281 -21.570312 C 3.828125 -22.519531 3.441406 -23.1875 2.355469 -23.222656 C 1.265625 -23.222656 0.808594 -22.449219 0.808594 -21.535156 C 0.773438 -18.757812 0.667969 -15.949219 0.703125 -13.136719 C 0.703125 -8.570312 0.773438 -5.515625 0.703125 -2.496094 C 0.667969 -0.808594 1.265625 0.0351562 3.054688 0 Z M 3.054688 0 "/></g></g></g><g fill="#ff6700" fill-opacity="1"><g transform="translate(121.735321, 202.169255)"><g><path d="M 6.605469 0.246094 C 7.867188 0.210938 8.816406 -0.0703125 9.484375 -0.527344 C 9.695312 -0.0703125 10.046875 0.210938 10.679688 0.210938 C 11.839844 0.210938 12.191406 -0.632812 12.191406 -1.652344 L 12.226562 -3.722656 C 12.261719 -4.953125 12.191406 -7.273438 12.367188 -12.121094 C 12.402344 -12.894531 12.296875 -13.910156 11.382812 -14.191406 C 10.996094 -14.296875 10.574219 -14.226562 10.152344 -13.945312 C 9.871094 -13.769531 9.695312 -13.488281 9.589844 -13.207031 L 9.554688 -13.277344 C 8.113281 -15.28125 4.460938 -15.175781 2.738281 -13.242188 C 1.054688 -11.382812 0.84375 -9.34375 0.703125 -7.800781 C 0.667969 -5.199219 0.738281 -3.265625 2.074219 -1.511719 C 2.914062 -0.316406 4.425781 0.28125 6.605469 0.246094 Z M 3.371094 -7.554688 C 3.40625 -8.5 3.546875 -9.730469 4.425781 -10.890625 C 4.882812 -11.453125 5.585938 -11.769531 6.289062 -11.769531 C 7.9375 -11.839844 8.957031 -10.011719 9.097656 -9.203125 C 9.203125 -8.675781 9.273438 -8.113281 9.308594 -7.554688 L 9.273438 -5.972656 C 9.097656 -4.214844 8.359375 -2.703125 6.5 -2.601562 C 5.339844 -2.601562 4.53125 -2.949219 4.109375 -3.6875 C 3.371094 -4.777344 3.335938 -5.9375 3.371094 -7.554688 Z M 3.371094 -7.554688 "/></g></g></g><g fill="#ff6700" fill-opacity="1"><g transform="translate(145.410167, 202.169255)"><g><path d="M 2.109375 0.316406 C 3.792969 0.351562 3.757812 -0.738281 3.792969 -1.792969 L 3.722656 -3.792969 L 3.722656 -6.007812 C 3.792969 -8.605469 4.25 -11.171875 6.148438 -11.171875 C 8.324219 -11.171875 8.992188 -10.082031 9.238281 -8.113281 C 9.34375 -3.722656 9.308594 -2.496094 9.34375 -1.792969 C 9.378906 -0.316406 9.554688 0.28125 10.855469 0.316406 C 12.085938 0.316406 12.367188 -0.773438 12.367188 -1.828125 C 12.402344 -6.359375 12.402344 -9.765625 11.277344 -11.804688 C 10.1875 -13.769531 8.921875 -14.261719 6.359375 -14.261719 C 5.375 -14.261719 4.53125 -14.050781 3.863281 -13.664062 C 3.722656 -14.015625 3.476562 -14.332031 3.019531 -14.472656 C 2.632812 -14.578125 2.214844 -14.507812 1.792969 -14.226562 C 1.300781 -13.875 1.125 -13.3125 1.089844 -12.753906 C 1.019531 -11.136719 0.984375 -9.589844 0.878906 -7.972656 C 0.703125 -4.847656 0.703125 -5.269531 0.738281 -4.636719 L 0.738281 -1.863281 C 0.738281 -0.84375 0.773438 0.28125 2.109375 0.316406 Z M 2.109375 0.316406 "/></g></g></g><g fill="#ff6700" fill-opacity="1"><g transform="translate(169.08501, 202.169255)"><g><path d="M 6.5 7.414062 C 12.332031 7.414062 12.121094 -0.0351562 12.121094 -4.636719 C 12.121094 -8.78125 12.085938 -6.429688 12.085938 -10.363281 L 12.085938 -12.4375 C 12.085938 -13.453125 11.734375 -14.296875 10.574219 -14.296875 C 10.082031 -14.296875 9.730469 -14.121094 9.519531 -13.804688 C 8.992188 -14.121094 8.324219 -14.367188 7.484375 -14.472656 C 2.914062 -15.070312 1.054688 -11.417969 0.738281 -7.9375 C 0.421875 -4.355469 1.933594 -0.246094 5.023438 0.351562 C 6.535156 0.597656 7.9375 0.351562 9.0625 -0.210938 L 9.0625 0.632812 C 8.886719 2.632812 8.289062 4.320312 6.710938 4.320312 C 5.480469 4.320312 4.8125 3.617188 4.496094 2.320312 C 4.320312 1.652344 3.96875 1.019531 3.265625 0.84375 C 1.125 0.316406 1.265625 3.160156 2.25 4.953125 C 3.335938 6.921875 4.601562 7.414062 6.5 7.414062 Z M 3.40625 -6.78125 C 3.40625 -8.78125 3.863281 -11.628906 7.0625 -11.839844 C 8.570312 -11.839844 8.78125 -11.136719 9.132812 -9.273438 C 9.34375 -7.484375 9.378906 -6.289062 9.203125 -5.234375 C 9.027344 -4.039062 8.992188 -2.601562 7.554688 -2.285156 C 6.042969 -1.96875 3.40625 -2.460938 3.40625 -6.78125 Z M 3.40625 -6.78125 "/></g></g></g><g fill="#ff6700" fill-opacity="1"><g transform="translate(192.514006, 202.169255)"><g><path d="M 6.394531 0.316406 C 7.9375 0.316406 9.203125 -0.175781 10.292969 -2.144531 C 11.417969 -4.179688 11.417969 -7.589844 11.382812 -11.769531 C 11.347656 -12.824219 11.101562 -13.910156 9.871094 -13.910156 C 8.570312 -13.875 8.394531 -13.277344 8.359375 -11.804688 C 8.324219 -11.101562 8.359375 -10.222656 8.253906 -5.832031 C 8.007812 -3.863281 7.34375 -2.773438 6.183594 -2.773438 C 3.160156 -2.773438 3.757812 -8.992188 3.828125 -11.804688 C 3.792969 -12.859375 3.828125 -13.945312 2.144531 -13.910156 C 0.808594 -13.875 0.84375 -12.753906 0.773438 -11.734375 C 0.492188 -6.5 0.5625 0.316406 6.394531 0.316406 Z M 6.394531 0.316406 "/></g></g></g><g fill="#ff6700" fill-opacity="1"><g transform="translate(215.205464, 202.169255)"><g><path d="M 6.605469 0.246094 C 7.867188 0.210938 8.816406 -0.0703125 9.484375 -0.527344 C 9.695312 -0.0703125 10.046875 0.210938 10.679688 0.210938 C 11.839844 0.210938 12.191406 -0.632812 12.191406 -1.652344 L 12.226562 -3.722656 C 12.261719 -4.953125 12.191406 -7.273438 12.367188 -12.121094 C 12.402344 -12.894531 12.296875 -13.910156 11.382812 -14.191406 C 10.996094 -14.296875 10.574219 -14.226562 10.152344 -13.945312 C 9.871094 -13.769531 9.695312 -13.488281 9.589844 -13.207031 L 9.554688 -13.277344 C 8.113281 -15.28125 4.460938 -15.175781 2.738281 -13.242188 C 1.054688 -11.382812 0.84375 -9.34375 0.703125 -7.800781 C 0.667969 -5.199219 0.738281 -3.265625 2.074219 -1.511719 C 2.914062 -0.316406 4.425781 0.28125 6.605469 0.246094 Z M 3.371094 -7.554688 C 3.40625 -8.5 3.546875 -9.730469 4.425781 -10.890625 C 4.882812 -11.453125 5.585938 -11.769531 6.289062 -11.769531 C 7.9375 -11.839844 8.957031 -10.011719 9.097656 -9.203125 C 9.203125 -8.675781 9.273438 -8.113281 9.308594 -7.554688 L 9.273438 -5.972656 C 9.097656 -4.214844 8.359375 -2.703125 6.5 -2.601562 C 5.339844 -2.601562 4.53125 -2.949219 4.109375 -3.6875 C 3.371094 -4.777344 3.335938 -5.9375 3.371094 -7.554688 Z M 3.371094 -7.554688 "/></g></g></g><g fill="#ff6700" fill-opacity="1"><g transform="translate(238.880313, 202.169255)"><g><path d="M 6.5 7.414062 C 12.332031 7.414062 12.121094 -0.0351562 12.121094 -4.636719 C 12.121094 -8.78125 12.085938 -6.429688 12.085938 -10.363281 L 12.085938 -12.4375 C 12.085938 -13.453125 11.734375 -14.296875 10.574219 -14.296875 C 10.082031 -14.296875 9.730469 -14.121094 9.519531 -13.804688 C 8.992188 -14.121094 8.324219 -14.367188 7.484375 -14.472656 C 2.914062 -15.070312 1.054688 -11.417969 0.738281 -7.9375 C 0.421875 -4.355469 1.933594 -0.246094 5.023438 0.351562 C 6.535156 0.597656 7.9375 0.351562 9.0625 -0.210938 L 9.0625 0.632812 C 8.886719 2.632812 8.289062 4.320312 6.710938 4.320312 C 5.480469 4.320312 4.8125 3.617188 4.496094 2.320312 C 4.320312 1.652344 3.96875 1.019531 3.265625 0.84375 C 1.125 0.316406 1.265625 3.160156 2.25 4.953125 C 3.335938 6.921875 4.601562 7.414062 6.5 7.414062 Z M 3.40625 -6.78125 C 3.40625 -8.78125 3.863281 -11.628906 7.0625 -11.839844 C 8.570312 -11.839844 8.78125 -11.136719 9.132812 -9.273438 C 9.34375 -7.484375 9.378906 -6.289062 9.203125 -5.234375 C 9.027344 -4.039062 8.992188 -2.601562 7.554688 -2.285156 C 6.042969 -1.96875 3.40625 -2.460938 3.40625 -6.78125 Z M 3.40625 -6.78125 "/></g></g></g><g fill="#ff6700" fill-opacity="1"><g transform="translate(262.309309, 202.169255)"><g><path d="M 5.375 0.351562 C 9.871094 0.984375 12.367188 -1.476562 12.121094 -3.96875 C 12.015625 -5.375 10.082031 -5.691406 9.449219 -4.390625 C 9.378906 -4.214844 9.34375 -4.003906 9.308594 -3.792969 C 9.203125 -3.371094 9.132812 -2.914062 8.851562 -2.703125 C 8.253906 -2.074219 3.6875 -1.160156 3.40625 -6.324219 C 5.761719 -6.324219 8.183594 -6.253906 10.996094 -6.394531 C 11.980469 -6.429688 12.402344 -7.0625 12.4375 -7.730469 C 12.472656 -7.800781 12.472656 -8.042969 12.472656 -8.183594 C 12.4375 -8.851562 12.261719 -10.082031 12.15625 -10.574219 C 11.804688 -12.085938 10.855469 -14.296875 7.273438 -14.472656 C 3.054688 -14.683594 1.054688 -11.417969 0.738281 -7.9375 C 0.386719 -4.355469 2.003906 -0.140625 5.375 0.351562 Z M 3.757812 -9.308594 C 4.179688 -10.609375 5.058594 -11.699219 6.816406 -11.839844 C 8.921875 -11.839844 9.167969 -11.171875 9.554688 -9.308594 Z M 3.757812 -9.308594 "/></g></g></g></svg>