<svg width="56" height="55" viewBox="0 0 86 85" fill="none" xmlns="http://www.w3.org/2000/svg">
<path d="M42.6555 83C65.1089 83 83.3109 64.8675 83.3109 42.5C83.3109 20.1325 65.1089 2 42.6555 2M42.6555 83C20.2021 83 2 64.8675 2 42.5M42.6555 83C54.0724 83 63.3277 64.8675 63.3277 42.5C63.3277 20.1325 54.0724 2 42.6555 2M42.6555 83C31.2385 83 21.9832 64.8675 21.9832 42.5C21.9832 20.1325 31.2385 2 42.6555 2M2 42.5C2 20.1325 20.2021 2 42.6555 2M2 42.5H84M17.1597 10.5805C17.1597 10.5805 44.1483 22.9364 68.1513 10.5805M68.1513 74.4195C68.1513 74.4195 41.1627 62.0636 17.1597 74.4195" stroke="#F0F0F0" stroke-width="4"/>
</svg>
